<svg width="25" height="25" viewBox="0 0 25 25" fill="none" xmlns="http://www.w3.org/2000/svg">
<path d="M20.7986 19.2583C20.7986 19.2583 19.6399 20.3963 19.356 20.73C18.8934 21.2236 18.3484 21.4567 17.634 21.4567C17.5653 21.4567 17.492 21.4567 17.4233 21.4521C16.0632 21.3652 14.7992 20.8351 13.8512 20.3826C11.2591 19.1303 8.98296 17.3525 7.09155 15.0993C5.52987 13.2209 4.4857 11.4842 3.79416 9.61947C3.36825 8.48146 3.21254 7.59481 3.28124 6.75844C3.32703 6.22371 3.53312 5.78039 3.91323 5.40105L5.47491 3.84256C5.69932 3.63232 5.93746 3.51807 6.17103 3.51807C6.45955 3.51807 6.69311 3.69174 6.83966 3.83799C6.84424 3.84256 6.84882 3.84713 6.8534 3.8517C7.13276 4.11221 7.39838 4.38186 7.67775 4.66979C7.81972 4.81604 7.96627 4.96229 8.11282 5.11312L9.36308 6.36082C9.84852 6.84527 9.84852 7.29317 9.36308 7.77762C9.23026 7.91016 9.10203 8.0427 8.96922 8.17067C8.58453 8.56372 8.88673 8.26214 8.48829 8.61863C8.47913 8.62777 8.46997 8.63234 8.46539 8.64148C8.07154 9.03453 8.14481 9.41843 8.22725 9.67894C8.23183 9.69265 8.23641 9.70637 8.24099 9.72008C8.56615 10.5062 9.02412 11.2466 9.72023 12.1286L9.72481 12.1332C10.9888 13.6871 12.3215 14.8983 13.7916 15.8261C13.9794 15.9449 14.1717 16.0409 14.3549 16.1323C14.5198 16.2145 14.6755 16.2922 14.8083 16.3745C14.8266 16.3836 14.8449 16.3973 14.8632 16.4065C15.0189 16.4842 15.1655 16.5207 15.3166 16.5207C15.6967 16.5207 15.9349 16.2831 16.0127 16.2054L16.9104 15.3095C17.0661 15.1542 17.3134 14.9668 17.602 14.9668C17.8859 14.9668 18.1195 15.145 18.2614 15.3004C18.266 15.305 18.266 15.305 18.2706 15.3095L20.794 17.8278C21.2657 18.294 20.7986 19.2583 20.7986 19.2583Z" stroke="#222124" stroke-width="2" stroke-linecap="round" stroke-linejoin="round"/>
</svg>
